<svg width="150" height="150" viewBox="0 0 150 150" fill="none" xmlns="http://www.w3.org/2000/svg">
<rect width="150" height="150" rx="30" fill="#1BBF72"/>
<path d="M135.999 63.4259C136.018 65.2551 135.58 67.06 134.725 68.6774C133.87 70.2947 132.626 71.6734 131.104 72.6888C130.839 72.8815 130.563 73.0575 130.276 73.216L123.574 77.0567L114.838 82.027L107.307 86.3196L84.338 99.4232C81.4952 101.052 78.276 101.908 74.9998 101.908C71.7237 101.908 68.5044 101.052 65.6616 99.4232L42.6927 86.3196L35.1619 82.027L19.7237 73.216C17.9871 72.2385 16.5418 70.8166 15.5359 69.0962C14.5301 67.3758 14 65.4188 14 63.4259C14 61.4331 14.5301 59.4761 15.5359 57.7557C16.5418 56.0353 17.9871 54.6134 19.7237 53.6359L65.6616 27.4287C68.5163 25.8361 71.7309 25 74.9998 25C78.2687 25 81.4833 25.8361 84.338 27.4287L130.276 53.6359C132.027 54.5966 133.484 56.0147 134.492 57.739C135.5 59.4632 136.021 61.4288 135.999 63.4259ZM74.9998 109.439C70.4063 109.434 65.8923 108.24 61.8962 105.975L35.1619 90.6875V97.9923C35.1477 100.883 35.7993 103.739 37.066 106.338C38.3328 108.936 40.1807 111.209 42.4668 112.979C51.7931 120.156 63.2313 124.048 74.9998 124.048C86.7684 124.048 98.2066 120.156 107.533 112.979C109.819 111.209 111.667 108.936 112.934 106.338C114.2 103.739 114.852 100.883 114.838 97.9923V90.6875L88.1034 105.975C84.1074 108.241 79.5934 109.433 74.9998 109.439ZM123.574 112.301C123.569 112.797 123.663 113.289 123.85 113.748C124.038 114.207 124.315 114.624 124.665 114.974C125.016 115.325 125.433 115.602 125.892 115.79C126.351 115.977 126.843 116.071 127.339 116.066C128.337 116.063 129.293 115.666 129.998 114.96C130.704 114.255 131.102 113.299 131.104 112.301V81.3493L123.574 85.7171V112.301Z" fill="white"/>
</svg>
