<svg width="429" height="151" viewBox="0 0 429 151" fill="none" xmlns="http://www.w3.org/2000/svg">
<path d="M204.887 58.8789V82.8984C204.887 85.4544 204.32 87.765 203.186 89.8301C202.068 91.8783 200.367 93.5033 198.082 94.7051C195.814 95.9069 192.953 96.5078 189.5 96.5078C184.591 96.5078 180.85 95.2552 178.277 92.75C175.704 90.2448 174.418 86.9271 174.418 82.7969V58.8789H182.264V81.6035C182.264 84.6673 182.89 86.8171 184.143 88.0527C185.395 89.2884 187.249 89.9062 189.703 89.9062C191.43 89.9062 192.826 89.61 193.893 89.0176C194.976 88.4251 195.771 87.5111 196.279 86.2754C196.787 85.0397 197.041 83.4655 197.041 81.5527V58.8789H204.887ZM246.908 96H236.904L220.756 67.918H220.527C220.595 69.0859 220.654 70.2624 220.705 71.4473C220.756 72.6322 220.807 73.8171 220.857 75.002C220.908 76.1699 220.959 77.3464 221.01 78.5312V96H213.977V58.8789H223.904L240.027 86.6816H240.205C240.171 85.5306 240.129 84.388 240.078 83.2539C240.027 82.1198 239.977 80.9857 239.926 79.8516C239.892 78.7174 239.858 77.5833 239.824 76.4492V58.8789H246.908V96ZM256.277 96V58.8789H264.148V96H256.277ZM302.615 58.8789L289.996 96H281.414L268.82 58.8789H276.768L283.75 80.9688C283.868 81.3411 284.063 82.0436 284.334 83.0762C284.605 84.0918 284.876 85.1751 285.146 86.3262C285.434 87.4603 285.629 88.3997 285.73 89.1445C285.832 88.3997 286.01 87.4603 286.264 86.3262C286.535 85.1921 286.797 84.1172 287.051 83.1016C287.322 82.069 287.516 81.3581 287.635 80.9688L294.668 58.8789H302.615ZM307.312 96V58.8789H315.184V96H307.312ZM346.439 85.6914C346.439 87.8919 345.906 89.8047 344.84 91.4297C343.773 93.0547 342.216 94.3073 340.168 95.1875C338.137 96.0677 335.665 96.5078 332.754 96.5078C331.467 96.5078 330.206 96.4232 328.971 96.2539C327.752 96.0846 326.576 95.8392 325.441 95.5176C324.324 95.179 323.258 94.7643 322.242 94.2734V86.9609C324.003 87.7396 325.831 88.4421 327.727 89.0684C329.622 89.6947 331.501 90.0078 333.363 90.0078C334.65 90.0078 335.682 89.8385 336.461 89.5C337.257 89.1615 337.832 88.696 338.188 88.1035C338.543 87.5111 338.721 86.834 338.721 86.0723C338.721 85.1413 338.408 84.3457 337.781 83.6855C337.155 83.0254 336.292 82.4076 335.191 81.832C334.108 81.2565 332.881 80.6387 331.51 79.9785C330.646 79.5723 329.707 79.0814 328.691 78.5059C327.676 77.9134 326.711 77.194 325.797 76.3477C324.883 75.5013 324.13 74.4772 323.537 73.2754C322.962 72.0566 322.674 70.6009 322.674 68.9082C322.674 66.6908 323.182 64.7949 324.197 63.2207C325.213 61.6465 326.66 60.4447 328.539 59.6152C330.435 58.7689 332.669 58.3457 335.242 58.3457C337.172 58.3457 339.008 58.5742 340.752 59.0312C342.512 59.4714 344.349 60.1146 346.262 60.9609L343.723 67.0801C342.013 66.3861 340.481 65.8529 339.127 65.4805C337.773 65.0911 336.393 64.8965 334.988 64.8965C334.007 64.8965 333.169 65.0573 332.475 65.3789C331.781 65.6836 331.256 66.1237 330.9 66.6992C330.545 67.2578 330.367 67.9095 330.367 68.6543C330.367 69.5345 330.621 70.2793 331.129 70.8887C331.654 71.4811 332.432 72.0566 333.465 72.6152C334.514 73.1738 335.818 73.8255 337.375 74.5703C339.271 75.4674 340.887 76.4069 342.225 77.3887C343.579 78.3535 344.62 79.4961 345.348 80.8164C346.076 82.1198 346.439 83.7448 346.439 85.6914ZM367.488 96H359.617V65.4297H349.537V58.8789H377.568V65.4297H367.488V96ZM406.006 96L403.314 87.1641H389.781L387.09 96H378.609L391.711 58.7266H401.334L414.486 96H406.006ZM401.436 80.5625L398.744 71.9297C398.575 71.3542 398.346 70.6178 398.059 69.7207C397.788 68.8066 397.508 67.8841 397.221 66.9531C396.95 66.0052 396.73 65.1842 396.561 64.4902C396.391 65.1842 396.154 66.0475 395.85 67.0801C395.562 68.0957 395.283 69.0605 395.012 69.9746C394.741 70.8887 394.546 71.5404 394.428 71.9297L391.762 80.5625H401.436Z" fill="white"/>
<line x1="157.5" y1="23" x2="157.5" y2="128" stroke="#1BBF72" stroke-width="7"/>
<path d="M138 58.29C138.009 56.1574 137.408 54.0661 136.267 52.2611C135.126 50.4561 133.492 49.0119 131.557 48.0972L81.5192 24.1203C79.9847 23.3829 78.3027 23 76.5987 23C74.8947 23 73.2128 23.3829 71.6783 24.1203L21.4315 48.0972C19.5047 49.0214 17.879 50.4681 16.7413 52.2713C15.6036 54.0744 15 56.1605 15 58.29C15 60.4195 15.6036 62.5056 16.7413 64.3088C17.879 66.1119 19.5047 67.5586 21.4315 68.4828L32.2731 73.6726V105.414C32.2596 109.079 33.3731 112.661 35.4639 115.678C37.5549 118.695 40.523 121.003 43.9696 122.291C64.979 129.903 88.01 129.903 109.019 122.291C112.466 121.003 115.434 118.695 117.525 115.678C119.616 112.661 120.729 109.079 120.716 105.414V73.6726L131.557 68.4828L131.745 68.379V90.4669C131.745 91.2927 132.075 92.0849 132.661 92.6688C133.248 93.2528 134.043 93.5808 134.873 93.5808C135.702 93.5808 136.498 93.2528 137.084 92.6688C137.67 92.0849 138 91.2927 138 90.4669V58.29ZM114.461 105.414C114.476 107.803 113.758 110.139 112.401 112.109C111.045 114.08 109.115 115.59 106.872 116.437C87.2444 123.516 65.7446 123.516 46.1171 116.437C43.8737 115.59 41.9443 114.08 40.5876 112.109C39.2312 110.139 38.5125 107.803 38.5279 105.414V76.662L71.574 92.4598C73.1086 93.1971 74.7905 93.5802 76.4945 93.5802C78.1985 93.5802 79.8804 93.1971 81.4149 92.4598L114.461 76.662V105.414ZM128.868 62.8571L78.7045 86.8548C78.0144 87.183 77.2592 87.3532 76.4945 87.3532C75.7297 87.3532 74.9746 87.183 74.2845 86.8548L24.121 62.8571C23.2564 62.4442 22.5266 61.7963 22.0158 60.9883C21.505 60.1802 21.234 59.245 21.234 58.29C21.234 57.3353 21.505 56.3999 22.0158 55.5919C22.5266 54.7838 23.2564 54.1359 24.121 53.723L74.2845 29.8291C74.9746 29.501 75.7297 29.3307 76.4945 29.3307C77.2592 29.3307 78.0144 29.501 78.7045 29.8291L128.868 53.723C129.733 54.1359 130.462 54.7838 130.973 55.5919C131.484 56.3999 131.755 57.3353 131.755 58.29C131.755 59.245 131.484 60.1802 130.973 60.9883C130.462 61.7963 129.733 62.4442 128.868 62.8571Z" fill="white"/>
</svg>
